<?xml version="1.0" encoding="UTF-8"?>
<svg width="100px" height="115px" viewBox="0 0 100 115" version="1.1" xmlns="http://www.w3.org/2000/svg" xmlns:xlink="http://www.w3.org/1999/xlink">
    <!-- Generator: Sketch 60.1 (88133) - https://sketch.com -->
    <title>Group 34 Copy</title>
    <desc>Created with Sketch.</desc>
    <g id="HOME" stroke="none" stroke-width="1" fill="none" fill-rule="evenodd">
        <g id="landing_silentdual_01" transform="translate(-670.000000, -160.000000)">
            <g id="Group-34-Copy" transform="translate(670.000000, 160.000000)">
                <polygon id="Fill-1" fill="#CC171A" points="0 114.793196 99.7790404 114.793196 99.7790404 0 0 0"></polygon>
                <path d="M9.97474747,11.6581381 L11.9270833,11.6581381 L11.9270833,10.0398786 L9.97474747,10.0398786 L9.97474747,11.6581381 Z M9.97474747,19.9145963 L11.9270833,19.9145963 L11.9270833,12.7650339 L9.97474747,12.7650339 L9.97474747,19.9145963 Z" id="Fill-2" fill="#FEFEFE"></path>
                <g id="Group-11" transform="translate(12.626263, 9.979531)" fill="#FEFEFE">
                    <path d="M2.76231061,2.78550254 L2.76231061,3.78123235 L2.80334596,3.78123235 C3.05271465,3.36674195 3.37310606,3.06341756 3.76609848,2.87443535 C4.16066919,2.68704122 4.5647096,2.59175607 4.97506313,2.59175607 C5.49747475,2.59175607 5.92518939,2.66321993 6.26136364,2.80614766 C6.5959596,2.94907538 6.85953283,3.14758611 7.05208333,3.40009176 C7.24147727,3.65418549 7.37878788,3.96386222 7.45770202,4.32753388 C7.5334596,4.69120553 7.57449495,5.09457933 7.57449495,5.53765528 L7.57449495,9.93506494 L5.62215909,9.93506494 L5.62215909,5.89656268 C5.62215909,5.30738283 5.53061869,4.86589497 5.34753788,4.57686335 C5.16287879,4.28624365 4.83775253,4.14013975 4.37215909,4.14013975 C3.84027778,4.14013975 3.45359848,4.30053642 3.21527778,4.61815359 C2.97853535,4.93577075 2.86016414,5.45825099 2.86016414,6.18718238 L2.86016414,9.93506494 L0.90625,9.93506494 L0.90625,2.78550254 L2.76231061,2.78550254 Z" id="Fill-3"></path>
                    <path d="M10.7678346,8.15767928 C10.8546402,8.31013552 10.9666982,8.43400621 11.1040088,8.53087945 C11.2413194,8.62775268 11.3991477,8.69921654 11.579072,8.74527103 C11.7574179,8.79132552 11.942077,8.81514681 12.1346275,8.81514681 C12.2719381,8.81514681 12.4171402,8.79926595 12.5702336,8.76591615 C12.7201705,8.73415443 12.8559028,8.68333569 12.9805871,8.615048 C13.1036932,8.54517222 13.2062816,8.45306324 13.2899306,8.33713298 C13.3720013,8.2227908 13.4130366,8.0766869 13.4130366,7.90199746 C13.4130366,7.6066135 13.2189078,7.38586957 12.8306503,7.23817758 C12.4408144,7.0904856 11.8963068,6.94279362 11.2002841,6.79510164 C10.9161932,6.7315782 10.6384154,6.65535008 10.3701073,6.56800536 C10.0986427,6.48066064 9.85874369,6.36473038 9.64725379,6.22180265 C9.43576389,6.07887493 9.26688763,5.89942123 9.13904672,5.68185347 C9.01120581,5.4658738 8.94649621,5.20066347 8.94649621,4.88781056 C8.94649621,4.42726567 9.03645833,4.04930124 9.21638258,3.75391728 C9.39315025,3.45853331 9.62989268,3.2250847 9.92345328,3.05515951 C10.2154356,2.88523433 10.5452967,2.76453981 10.9114583,2.69625212 C11.2776199,2.62637634 11.6548295,2.59143845 12.0415088,2.59143845 C12.4234533,2.59143845 12.7975063,2.62955251 13.1605114,2.70260446 C13.5203598,2.77565641 13.8439078,2.90111519 14.1279987,3.07580463 C14.4136679,3.25049407 14.6472538,3.48394269 14.8350694,3.77456239 C15.0228851,4.0651821 15.1365215,4.43202993 15.172822,4.87351779 L13.3167614,4.87351779 C13.2899306,4.49555336 13.1478851,4.23987154 12.8922033,4.10647233 C12.6365215,3.97307312 12.3319129,3.90637352 11.9846907,3.90637352 C11.8742109,3.90637352 11.7542614,3.91272586 11.6264205,3.92543055 C11.4985795,3.93972332 11.3817866,3.96989695 11.2760417,4.01595144 C11.1702967,4.06200593 11.0819129,4.12870553 11.0077336,4.21605025 C10.9351326,4.30498306 10.8988321,4.42250141 10.8988321,4.57019339 C10.8988321,4.74488283 10.9619634,4.88781056 11.0898043,4.99738848 C11.2192235,5.10855449 11.3880997,5.19907538 11.5916982,5.26736307 C11.7984533,5.33723885 12.0336174,5.3991742 12.3003472,5.4547572 C12.5654987,5.5103402 12.8369634,5.56909938 13.1115846,5.6342109 C13.3956755,5.69773433 13.671875,5.77713862 13.9433396,5.8692476 C14.2116477,5.96135658 14.453125,6.08363919 14.6646149,6.23609543 C14.8761048,6.38855167 15.0434028,6.57753388 15.172822,6.80304207 C15.3006629,7.02855025 15.3653725,7.30805336 15.3653725,7.63837521 C15.3653725,8.10844862 15.2722538,8.50388199 15.0828598,8.82149915 C14.8950442,9.1407044 14.6504104,9.39479814 14.3489583,9.58854461 C14.045928,9.78229108 13.6987058,9.91886646 13.3104482,9.99668267 C12.9206124,10.076087 12.5244634,10.114201 12.1220013,10.114201 C11.7084912,10.114201 11.306029,10.0729108 10.9114583,9.99033032 C10.5184659,9.90774986 10.1680871,9.76799831 9.86032197,9.57583992 C9.5541351,9.38209345 9.30160985,9.12641163 9.10432449,8.80720638 C8.90703914,8.48958922 8.79971591,8.09097967 8.7823548,7.61137775 L10.6368371,7.61137775 C10.6368371,7.82418125 10.681029,8.00522304 10.7678346,8.15767928" id="Fill-5"></path>
                    <path d="M20.4780619,2.78550254 L20.4780619,4.09884952 L19.0481376,4.09884952 L19.0481376,7.63869283 C19.0481376,7.97060277 19.1033775,8.19293478 19.212279,8.3025127 C19.3243371,8.41367871 19.5421402,8.46926172 19.8720013,8.46926172 C19.9840593,8.46926172 20.0866477,8.46449746 20.1876578,8.45496894 C20.2902462,8.44544043 20.3849432,8.43273574 20.4780619,8.41367871 L20.4780619,9.93506494 C20.3139205,9.96206239 20.1276831,9.98111942 19.9272412,9.99064794 C19.725221,9.99858837 19.5279356,10.0033526 19.3353851,10.0033526 C19.0355114,10.0033526 18.7466856,9.98270751 18.4767992,9.94141728 C18.2084912,9.90012705 17.9685922,9.81913467 17.7618371,9.70002823 C17.5566604,9.57933371 17.3925189,9.40940853 17.275726,9.18707651 C17.1573548,8.96633258 17.0958018,8.67571287 17.0958018,8.31680548 L17.0958018,4.09884952 L15.9136679,4.09884952 L15.9136679,2.78550254 L17.0958018,2.78550254 L17.0958018,0.641586674 L19.0481376,0.641586674 L19.0481376,2.78550254 L20.4780619,2.78550254 Z" id="Fill-7"></path>
                    <path d="M21.3982008,4.98388975 C21.4250316,4.52334486 21.5402462,4.14061618 21.7422664,3.8357037 C21.9427083,3.53079122 22.1999684,3.28781409 22.5124684,3.10359613 C22.8218119,2.91937818 23.1737689,2.78756705 23.5636048,2.70975085 C23.9518624,2.63034656 24.3432765,2.5922325 24.7378472,2.5922325 C25.0945391,2.5922325 25.4543876,2.61764187 25.8237058,2.66846062 C26.1898674,2.71769128 26.5244634,2.81774068 26.8259154,2.96543267 C27.1289457,3.11153656 27.3767361,3.31798772 27.5677083,3.58002188 C27.7586806,3.84205604 27.8581124,4.19143492 27.8581124,4.62498235 L27.8581124,8.34427936 C27.8581124,8.66666078 27.8754735,8.97474944 27.911774,9.2701334 C27.9480745,9.56551736 28.0112058,9.78626129 28.1043245,9.93395327 L26.1251578,9.93395327 C26.0888573,9.82437535 26.0572917,9.71162126 26.0351957,9.59569099 C26.0130997,9.47976073 25.9973169,9.36224238 25.9862689,9.24313594 C25.6769255,9.56551736 25.3107639,9.79102555 24.8893624,9.9196605 C24.4663826,10.0498835 24.0370896,10.113407 23.5967487,10.113407 C23.2574179,10.113407 22.9417614,10.0721167 22.6482008,9.98953628 C22.3546402,9.90695582 22.0973801,9.77832086 21.879577,9.60204334 C21.6601957,9.4273539 21.4865846,9.20660997 21.3634785,8.93822346 C21.2387942,8.67142504 21.1772412,8.35221979 21.1772412,7.98537196 C21.1772412,7.57882199 21.2482639,7.24532397 21.3918876,6.98170172 C21.5323548,6.71966756 21.7170139,6.51004023 21.9411301,6.35281973 C22.1636679,6.19559924 22.420928,6.07808089 22.7113321,6.00026468 C22.9985795,5.92244848 23.2889836,5.85892504 23.5841225,5.81287055 C23.8745265,5.76681606 24.1649306,5.73029009 24.4490215,5.70329263 C24.7315341,5.67470709 24.9840593,5.63341685 25.2050189,5.57783385 C25.4244003,5.52225085 25.5980114,5.44284656 25.7274306,5.33644481 C25.8536932,5.23004305 25.9136679,5.07599873 25.9041982,4.87272374 C25.9041982,4.66150833 25.8710543,4.49317123 25.8031881,4.36771245 C25.7337437,4.24384176 25.640625,4.14696852 25.5269886,4.07868083 C25.4133523,4.00880505 25.2807765,3.96275056 25.1276831,3.94051736 C24.9777462,3.91669608 24.8151831,3.90557947 24.641572,3.90557947 C24.256471,3.90557947 23.9550189,3.98815994 23.7324811,4.15332086 C23.514678,4.32006988 23.3868371,4.59639681 23.3489583,4.98388975 L21.3982008,4.98388975 Z M25.9041982,6.4354002 C25.8237058,6.51004023 25.7179609,6.56721132 25.5948548,6.60850155 C25.473327,6.64979178 25.3407513,6.68472967 25.1971275,6.71172713 C25.0535038,6.74031268 24.9067235,6.76254588 24.7520518,6.78160291 C24.5942235,6.79907185 24.4395518,6.82289314 24.2817235,6.85147868 C24.1365215,6.87847614 23.9928977,6.91500212 23.8508523,6.96105661 C23.7088068,7.0071111 23.5857008,7.06904644 23.4783775,7.14845073 C23.3742109,7.22626694 23.2889836,7.32472826 23.224274,7.44542278 C23.162721,7.56452922 23.129577,7.71698546 23.129577,7.90120342 C23.129577,8.07748094 23.162721,8.22358484 23.224274,8.34427936 C23.2889836,8.4633858 23.3773674,8.55867095 23.4862689,8.62695864 C23.5967487,8.69683442 23.7245896,8.74447699 23.8713699,8.77306254 C24.016572,8.80005999 24.1696654,8.81435277 24.3243371,8.81435277 C24.7110164,8.81435277 25.0077336,8.74924125 25.2192235,8.6206063 C25.4291351,8.49197134 25.5838068,8.33633893 25.6863952,8.15688523 C25.785827,7.97743154 25.8473801,7.79638975 25.8710543,7.61058371 C25.8947285,7.42636575 25.9041982,7.27867377 25.9041982,7.16909585 L25.9041982,6.4354002 Z" id="Fill-9"></path>
                </g>
                <polygon id="Fill-12" fill="#FEFEFE" points="42.1180556 19.9145963 44.0703914 19.9145963 44.0703914 10.0414667 42.1180556 10.0414667"></polygon>
                <polygon id="Fill-13" fill="#FEFEFE" points="45.7323232 19.9145963 47.6846591 19.9145963 47.6846591 10.0414667 45.7323232 10.0414667"></polygon>
                <polygon id="Fill-14" fill="#FEFEFE" points="49.2787247 16.9829898 53.415404 16.9829898 53.415404 15.2964427 49.2787247 15.2964427"></polygon>
                <g id="Group-19" transform="translate(7.891414, 21.096132)" fill="#FEFEFE">
                    <path d="M1.28582702,5.55385375 L1.28582702,4.24050678 L2.45375631,4.24050678 L2.45375631,3.68785291 C2.45375631,3.05103049 2.65104167,2.53013834 3.04561237,2.12517645 C3.4386048,1.71862648 4.03361742,1.5153515 4.83065025,1.5153515 C5.00426136,1.5153515 5.18102904,1.52329193 5.35306187,1.53599661 C5.52825126,1.55028938 5.69712753,1.56299407 5.86284722,1.5709345 L5.86284722,3.03673772 C5.63241793,3.00974026 5.39567551,2.99544749 5.1478851,2.99544749 C4.8811553,2.99544749 4.69176136,3.05738283 4.578125,3.18284161 C4.46448864,3.30671231 4.40609217,3.51633964 4.40609217,3.8117236 L4.40609217,4.24050678 L5.75236742,4.24050678 L5.75236742,5.55385375 L4.40609217,5.55385375 L4.40609217,11.3900692 L2.45375631,11.3900692 L2.45375631,5.55385375 L1.28582702,5.55385375 Z" id="Fill-15"></path>
                    <path d="M8.52840909,4.23955392 L8.52840909,5.56719368 L8.55681818,5.56719368 C8.6467803,5.34644975 8.76988636,5.14158667 8.92613636,4.95101637 C9.08396465,4.76203416 9.26073232,4.60163749 9.46433081,4.46823828 C9.66477273,4.33483907 9.87941919,4.23002541 10.1082702,4.15697346 C10.3371212,4.08233343 10.5770202,4.04580745 10.8232323,4.04580745 C10.9510732,4.04580745 11.0931187,4.06962874 11.250947,4.11568323 L11.250947,5.94039385 C11.1578283,5.9229249 11.0489268,5.90545596 10.9210859,5.89275127 C10.7932449,5.8784585 10.6669823,5.87210615 10.5486111,5.87210615 C10.1919192,5.87210615 9.88888889,5.93086533 9.64109848,6.05155985 C9.39646465,6.17066629 9.19602273,6.33423913 9.04292929,6.54227837 C8.89141414,6.74872953 8.78409091,6.99170666 8.7209596,7.2680336 C8.65625,7.54436053 8.62626263,7.84450875 8.62626263,8.16689018 L8.62626263,11.3891163 L6.67392677,11.3891163 L6.67392677,4.23955392 L8.52840909,4.23955392 Z" id="Fill-17"></path>
                </g>
                <path d="M20.0347222,24.2294255 L21.9854798,24.2294255 L21.9854798,22.611166 L20.0347222,22.611166 L20.0347222,24.2294255 Z M20.0347222,32.4858837 L21.9854798,32.4858837 L21.9854798,25.3363213 L20.0347222,25.3363213 L20.0347222,32.4858837 Z" id="Fill-20" fill="#FEFEFE"></path>
                <g id="Group-27" transform="translate(22.095960, 21.096132)" fill="#FEFEFE">
                    <path d="M3.5853851,9.67446005 C3.88052399,9.9603155 4.30034722,10.1032432 4.85116793,10.1032432 C5.24573864,10.1032432 5.58506944,10.0047819 5.86758207,9.80627117 C6.1500947,9.60776045 6.32528409,9.39813312 6.38999369,9.17738919 L8.1071654,9.17738919 C7.83254419,10.0333674 7.41272096,10.6463686 6.84296086,11.0163926 C6.27477904,11.3848285 5.58822601,11.5690464 4.78330177,11.5690464 C4.22301136,11.5690464 3.71796086,11.4785256 3.27130682,11.2990719 C2.82149621,11.1196182 2.44113005,10.8639363 2.12863005,10.5320264 C1.81928662,10.2001165 1.57938763,9.803095 1.4073548,9.34255011 C1.24005682,8.88200522 1.15325126,8.37381776 1.15325126,7.82116389 C1.15325126,7.28597897 1.2416351,6.7889081 1.41366793,6.32836321 C1.58885732,5.86781832 1.83664773,5.46762069 2.15861742,5.13253458 C2.47900884,4.79586039 2.859375,4.53065006 3.30445076,4.33690359 C3.74952652,4.14315711 4.24037247,4.04628388 4.78330177,4.04628388 C5.38778409,4.04628388 5.91493056,4.16380223 6.36316288,4.39883893 C6.80981692,4.63387564 7.1791351,4.94990471 7.46953914,5.34533809 C7.7583649,5.74235954 7.96511995,6.194964 8.09296086,6.70156338 C8.22238005,7.20816276 8.26972854,7.73858343 8.23027146,8.2912373 L3.10558712,8.2912373 C3.13241793,8.92805971 3.29182449,9.3886046 3.5853851,9.67446005 M5.79182449,5.91387281 C5.55823864,5.65501482 5.203125,5.52637987 4.72806187,5.52637987 C4.41398359,5.52637987 4.15672348,5.5787867 3.94996843,5.68518845 C3.74636995,5.7915902 3.57907197,5.92181324 3.45596591,6.07903374 C3.33285985,6.23466615 3.24447601,6.40141516 3.19397096,6.5761046 C3.14504419,6.75238213 3.11347854,6.90801454 3.10558712,7.04776609 L6.27951389,7.04776609 C6.18797348,6.54910714 6.02698864,6.17114272 5.79182449,5.91387281" id="Fill-21"></path>
                    <path d="M11.3104482,4.23955392 L11.3104482,5.23528374 L11.3499053,5.23528374 C11.599274,4.82079334 11.9196654,4.51905703 12.3126578,4.33007482 C12.7072285,4.1410926 13.1096907,4.04580745 13.5216225,4.04580745 C14.0440341,4.04580745 14.473327,4.11727132 14.807923,4.26019904 C15.1425189,4.40312676 15.4060922,4.60163749 15.5986427,4.85414314 C15.7911932,5.10823687 15.9253472,5.41791361 16.0026831,5.78158526 C16.0800189,6.14525692 16.119476,6.54863072 16.119476,6.99170666 L16.119476,11.3891163 L14.1687184,11.3891163 L14.1687184,7.35061406 C14.1687184,6.76143422 14.077178,6.31994636 13.8940972,6.03091474 C13.7110164,5.74029503 13.3843119,5.59419113 12.9187184,5.59419113 C12.3868371,5.59419113 12.0001578,5.7545878 11.7634154,6.07220497 C11.5250947,6.38982213 11.4067235,6.91389046 11.4067235,7.64123377 L11.4067235,11.3891163 L9.45438763,11.3891163 L9.45438763,4.23955392 L11.3104482,4.23955392 Z" id="Fill-23"></path>
                    <path d="M22.7159091,10.4762846 C22.4870581,10.8637775 22.1871843,11.1416925 21.8162879,11.3132058 C21.4453914,11.483131 21.0255682,11.5688876 20.5583965,11.5688876 C20.0265152,11.5688876 19.5593434,11.4656621 19.1568813,11.2576228 C18.7528409,11.0495836 18.4214015,10.7684924 18.1609848,10.4143492 C17.8989899,10.0602061 17.7017045,9.65047995 17.5691288,9.18993506 C17.436553,8.72939018 17.3702652,8.24978826 17.3702652,7.75112931 C17.3702652,7.27311547 17.436553,6.80939441 17.5691288,6.36314229 C17.7017045,5.91530209 17.8989899,5.5214568 18.1609848,5.18001835 C18.4214015,4.8385799 18.7496843,4.56384105 19.1426768,4.35738989 C19.5372475,4.14935065 19.9933712,4.04612507 20.5173611,4.04612507 C20.9387626,4.04612507 21.3396465,4.13664596 21.7200126,4.31609966 C22.1003788,4.49555336 22.4002525,4.76076369 22.6196338,5.11014257 L22.6480429,5.11014257 L22.6480429,1.51471626 L24.5988005,1.51471626 L24.5988005,11.3894339 L22.7443182,11.3894339 L22.7443182,10.4762846 L22.7159091,10.4762846 Z M22.6338384,6.94279362 C22.5785985,6.67123094 22.4854798,6.43142998 22.352904,6.22339074 C22.21875,6.01693958 22.0467172,5.84860248 21.8368056,5.71996753 C21.6253157,5.58974449 21.3601641,5.52622106 21.0397727,5.52622106 C20.7193813,5.52622106 20.4479167,5.58974449 20.2285354,5.71996753 C20.009154,5.84860248 19.8323864,6.01852767 19.6998106,6.23133117 C19.5672348,6.44254658 19.4709596,6.68552372 19.4109848,6.95708639 C19.3510101,7.22864907 19.322601,7.51291643 19.322601,7.8083004 C19.322601,8.08462733 19.3541667,8.36095426 19.417298,8.6372812 C19.4820076,8.91360813 19.584596,9.16134952 19.7250631,9.37732919 C19.8686869,9.59330887 20.0486111,9.76958639 20.2632576,9.9029856 C20.477904,10.0363848 20.7367424,10.1030844 21.0397727,10.1030844 C21.3601641,10.1030844 21.6284722,10.0379729 21.8431187,9.90933794 C22.0593434,9.78070299 22.2282197,9.60760164 22.3576389,9.39162196 C22.4870581,9.17405421 22.5785985,8.9279009 22.6338384,8.65157397 C22.6875,8.37365895 22.7159091,8.08939159 22.7159091,7.79400762 C22.7159091,7.49862366 22.6875,7.21594438 22.6338384,6.94279362 L22.6338384,6.94279362 Z" id="Fill-25"></path>
                </g>
                <polygon id="Fill-28" fill="#FEFEFE" points="48.2875631 32.4858837 50.239899 32.4858837 50.239899 22.6127541 48.2875631 22.6127541"></polygon>
                <g id="Group-33" transform="translate(7.891414, 24.272304)" fill="#FEFEFE">
                    <path d="M46.5812816,10.3428854 C46.2056503,10.5906268 45.6832386,10.7160855 45.015625,10.7160855 C44.8136048,10.7160855 44.6131629,10.7097332 44.4174558,10.6954404 C44.2201705,10.6811477 44.0213068,10.6652668 43.8192866,10.6462098 L43.8192866,9.0295384 C44.0023674,9.04700734 44.1901831,9.06606437 44.3827336,9.0851214 C44.5752841,9.10259034 44.7678346,9.1073546 44.9603851,9.09782609 C45.2160669,9.07082863 45.4070391,8.96919113 45.5301452,8.79450169 C45.6532513,8.61822417 45.7148043,8.4244777 45.7148043,8.21326228 C45.7148043,8.05604178 45.6879735,7.9083498 45.6311553,7.77018634 L43.1453598,1.06369989 L45.2208018,1.06369989 L46.829072,5.95976849 L46.8559028,5.95976849 L48.4089331,1.06369989 L50.4291351,1.06369989 L47.4603851,9.09782609 C47.2504735,9.6790655 46.9569129,10.0935559 46.5812816,10.3428854" id="Fill-29"></path>
                    <path d="M32.4614899,49.6038608 C15.2881944,49.6038608 1.31881313,35.5461251 1.31881313,18.2661632 L10.8958333,18.2661632 C10.8958333,30.2308018 20.5691288,39.9657679 32.4614899,39.9657679 C44.3522727,39.9657679 54.0271465,30.2308018 54.0271465,18.2661632 L63.6057449,18.2661632 C63.6057449,35.5461251 49.6347854,49.6038608 32.4614899,49.6038608" id="Fill-31"></path>
                </g>
            </g>
        </g>
    </g>
</svg>