<?xml version="1.0" encoding="UTF-8"?>
<svg width="100px" height="115px" viewBox="0 0 100 115" version="1.1" xmlns="http://www.w3.org/2000/svg" xmlns:xlink="http://www.w3.org/1999/xlink">
    <!-- Generator: Sketch 61.2 (89653) - https://sketch.com -->
    <title>Group 34 Copy</title>
    <desc>Created with Sketch.</desc>
    <g id="Page-1" stroke="none" stroke-width="1" fill="none" fill-rule="evenodd">
        <g id="Group-34-Copy">
            <polygon id="Fill-1" fill="#CC171A" points="0 115.076636 99.7790404 115.076636 99.7790404 0 0 0"></polygon>
            <path d="M9.97474747,11.6869236 L11.9270833,11.6869236 L11.9270833,10.0646684 L9.97474747,10.0646684 L9.97474747,11.6869236 Z M9.97474747,19.9637681 L11.9270833,19.9637681 L11.9270833,12.7965525 L9.97474747,12.7965525 L9.97474747,19.9637681 Z" id="Fill-2" fill="#FEFEFE"></path>
            <g id="Group-11" transform="translate(12.626263, 10.004172)" fill="#FEFEFE">
                <path d="M2.76231061,2.79238032 L2.76231061,3.79056873 L2.80334596,3.79056873 C3.05271465,3.3750549 3.37310606,3.07098155 3.76609848,2.88153272 C4.16066919,2.69367589 4.5647096,2.59815547 4.97506313,2.59815547 C5.49747475,2.59815547 5.92518939,2.66979578 6.26136364,2.81307642 C6.5959596,2.95635705 6.85953283,3.15535793 7.05208333,3.40848704 C7.24147727,3.66320817 7.37878788,3.97364954 7.45770202,4.33821915 C7.5334596,4.70278876 7.57449495,5.10715854 7.57449495,5.5513285 L7.57449495,9.95959596 L5.62215909,9.95959596 L5.62215909,5.91112209 C5.62215909,5.32048748 5.53061869,4.87790953 5.34753788,4.58816425 C5.16287879,4.29682697 4.83775253,4.15036232 4.37215909,4.15036232 C3.84027778,4.15036232 3.45359848,4.31115503 3.21527778,4.62955643 C2.97853535,4.94795784 2.86016414,5.47172815 2.86016414,6.20245938 L2.86016414,9.95959596 L0.90625,9.95959596 L0.90625,2.79238032 L2.76231061,2.79238032 Z" id="Fill-3"></path>
                <path d="M10.7678346,8.1778217 C10.8546402,8.33065437 10.9666982,8.45483092 11.1040088,8.55194335 C11.2413194,8.64905578 11.3991477,8.72069609 11.579072,8.7668643 C11.7574179,8.8130325 11.942077,8.8369126 12.1346275,8.8369126 C12.2719381,8.8369126 12.4171402,8.82099253 12.5702336,8.78756039 C12.7201705,8.75572025 12.8559028,8.70477602 12.9805871,8.63631972 C13.1036932,8.56627141 13.2062816,8.473935 13.2899306,8.35771849 C13.3720013,8.24309398 13.4130366,8.09662934 13.4130366,7.92150856 C13.4130366,7.62539526 13.2189078,7.40410628 12.8306503,7.25604963 C12.4408144,7.10799297 11.8963068,6.95993632 11.2002841,6.81187967 C10.9161932,6.74819939 10.6384154,6.67178305 10.3701073,6.58422266 C10.0986427,6.49666227 9.85874369,6.38044576 9.64725379,6.23716513 C9.43576389,6.0938845 9.26688763,5.9139877 9.13904672,5.69588274 C9.01120581,5.47936978 8.94649621,5.21350461 8.94649621,4.89987923 C8.94649621,4.43819719 9.03645833,4.05929952 9.21638258,3.76318621 C9.39315025,3.4670729 9.62989268,3.23304787 9.92345328,3.06270312 C10.2154356,2.89235837 10.5452967,2.77136583 10.9114583,2.70290953 C11.2776199,2.63286122 11.6548295,2.59783707 12.0415088,2.59783707 C12.4234533,2.59783707 12.7975063,2.63604523 13.1605114,2.70927756 C13.5203598,2.78250988 13.8439078,2.90827844 14.1279987,3.08339921 C14.4136679,3.25851998 14.6472538,3.49254502 14.8350694,3.7838823 C15.0228851,4.07521959 15.1365215,4.44297321 15.172822,4.88555116 L13.3167614,4.88555116 C13.2899306,4.50665349 13.1478851,4.25034036 12.8922033,4.11661177 C12.6365215,3.98288318 12.3319129,3.91601888 11.9846907,3.91601888 C11.8742109,3.91601888 11.7542614,3.92238691 11.6264205,3.93512297 C11.4985795,3.94945103 11.3817866,3.97969917 11.2760417,4.02586737 C11.1702967,4.07203557 11.0819129,4.13889987 11.0077336,4.22646025 C10.9351326,4.31561265 10.8988321,4.43342117 10.8988321,4.58147782 C10.8988321,4.75659859 10.9619634,4.89987923 11.0898043,5.00972771 C11.2192235,5.1211682 11.3880997,5.2119126 11.5916982,5.28036891 C11.7984533,5.35041722 12.0336174,5.41250549 12.3003472,5.46822574 C12.5654987,5.52394598 12.8369634,5.58285024 13.1115846,5.64812253 C13.3956755,5.71180281 13.671875,5.79140316 13.9433396,5.88373957 C14.2116477,5.97607598 14.453125,6.09866052 14.6646149,6.25149319 C14.8761048,6.40432587 15.0434028,6.5937747 15.172822,6.8198397 C15.3006629,7.0459047 15.3653725,7.32609794 15.3653725,7.6572354 C15.3653725,8.12846948 15.2722538,8.52487923 15.0828598,8.84328063 C14.8950442,9.16327404 14.6504104,9.41799517 14.3489583,9.61222003 C14.045928,9.80644488 13.6987058,9.94335749 13.3104482,10.0213658 C12.9206124,10.1009662 12.5244634,10.1391744 12.1220013,10.1391744 C11.7084912,10.1391744 11.306029,10.0977822 10.9114583,10.0149978 C10.5184659,9.93221344 10.1680871,9.79211682 9.86032197,9.59948397 C9.5541351,9.40525911 9.30160985,9.14894598 9.10432449,8.82895257 C8.90703914,8.51055116 8.79971591,8.1109574 8.7823548,7.63017128 L10.6368371,7.63017128 C10.6368371,7.84350022 10.681029,8.02498902 10.7678346,8.1778217" id="Fill-5"></path>
                <path d="M20.4780619,2.79238032 L20.4780619,4.10897014 L19.0481376,4.10897014 L19.0481376,7.6575538 C19.0481376,7.99028327 19.1033775,8.21316425 19.212279,8.32301274 C19.3243371,8.43445323 19.5421402,8.49017347 19.8720013,8.49017347 C19.9840593,8.49017347 20.0866477,8.48539745 20.1876578,8.47584541 C20.2902462,8.46629337 20.3849432,8.45355731 20.4780619,8.43445323 L20.4780619,9.95959596 C20.3139205,9.98666008 20.1276831,10.0057642 19.9272412,10.0153162 C19.725221,10.0232762 19.5279356,10.0280523 19.3353851,10.0280523 C19.0355114,10.0280523 18.7466856,10.0073562 18.4767992,9.96596399 C18.2084912,9.92457181 17.9685922,9.84337945 17.7618371,9.72397892 C17.5566604,9.60298639 17.3925189,9.43264163 17.275726,9.20976065 C17.1573548,8.98847167 17.0958018,8.69713439 17.0958018,8.3373408 L17.0958018,4.10897014 L15.9136679,4.10897014 L15.9136679,2.79238032 L17.0958018,2.79238032 L17.0958018,0.643170839 L19.0481376,0.643170839 L19.0481376,2.79238032 L20.4780619,2.79238032 Z" id="Fill-7"></path>
                <path d="M21.3982008,4.99619565 C21.4250316,4.53451361 21.5402462,4.15083992 21.7422664,3.84517457 C21.9427083,3.53950922 22.1999684,3.29593215 22.5124684,3.11125933 C22.8218119,2.92658652 23.1737689,2.79444993 23.5636048,2.71644159 C23.9518624,2.63684124 24.3432765,2.59863307 24.7378472,2.59863307 C25.0945391,2.59863307 25.4543876,2.62410518 25.8237058,2.67504941 C26.1898674,2.72440162 26.5244634,2.82469807 26.8259154,2.97275472 C27.1289457,3.11921937 27.3767361,3.32618028 27.5677083,3.58886144 C27.7586806,3.8515426 27.8581124,4.20178415 27.8581124,4.63640206 L27.8581124,8.36488252 C27.8581124,8.68805995 27.8754735,8.99690931 27.911774,9.29302262 C27.9480745,9.58913592 28.0112058,9.8104249 28.1043245,9.95848155 L26.1251578,9.95848155 C26.0888573,9.84863307 26.0572917,9.73560057 26.0351957,9.61938406 C26.0130997,9.50316755 25.9973169,9.38535903 25.9862689,9.2659585 C25.6769255,9.58913592 25.3107639,9.81520092 24.8893624,9.94415349 C24.4663826,10.0746981 24.0370896,10.1383783 23.5967487,10.1383783 C23.2574179,10.1383783 22.9417614,10.0969862 22.6482008,10.0142018 C22.3546402,9.93141744 22.0973801,9.80246487 21.879577,9.62575209 C21.6601957,9.45063131 21.4865846,9.22934234 21.3634785,8.96029315 C21.2387942,8.69283597 21.1772412,8.37284256 21.1772412,8.00508893 C21.1772412,7.59753513 21.2482639,7.26321366 21.3918876,6.99894049 C21.5323548,6.73625933 21.7170139,6.5261144 21.9411301,6.36850571 C22.1636679,6.21089701 22.420928,6.09308849 22.7113321,6.01508015 C22.9985795,5.93707181 23.2889836,5.87339152 23.5841225,5.82722332 C23.8745265,5.78105512 24.1649306,5.74443895 24.4490215,5.71737484 C24.7315341,5.68871871 24.9840593,5.64732653 25.2050189,5.59160628 C25.4244003,5.53588603 25.5980114,5.45628568 25.7274306,5.34962121 C25.8536932,5.24295674 25.9136679,5.08853206 25.9041982,4.88475516 C25.9041982,4.67301823 25.8710543,4.50426548 25.8031881,4.37849693 C25.7337437,4.25432038 25.640625,4.15720795 25.5269886,4.08875165 C25.4133523,4.01870334 25.2807765,3.97253513 25.1276831,3.95024704 C24.9777462,3.92636693 24.8151831,3.91522288 24.641572,3.91522288 C24.256471,3.91522288 23.9550189,3.99800725 23.7324811,4.16357598 C23.514678,4.33073671 23.3868371,4.60774594 23.3489583,4.99619565 L21.3982008,4.99619565 Z M25.9041982,6.45129007 C25.8237058,6.5261144 25.7179609,6.58342666 25.5948548,6.62481884 C25.473327,6.66621102 25.3407513,6.70123518 25.1971275,6.7282993 C25.0535038,6.75695542 24.9067235,6.77924352 24.7520518,6.79834761 C24.5942235,6.81585968 24.4395518,6.83973979 24.2817235,6.86839592 C24.1365215,6.89546004 23.9928977,6.9320762 23.8508523,6.9782444 C23.7088068,7.0244126 23.5857008,7.08650088 23.4783775,7.16610123 C23.3742109,7.24410957 23.2889836,7.34281401 23.224274,7.46380654 C23.162721,7.58320707 23.129577,7.73603975 23.129577,7.92071256 C23.129577,8.09742534 23.162721,8.24388999 23.224274,8.36488252 C23.2889836,8.48428305 23.3773674,8.57980347 23.4862689,8.64825977 C23.5967487,8.71830808 23.7245896,8.76606829 23.8713699,8.79472442 C24.016572,8.82178854 24.1696654,8.8361166 24.3243371,8.8361166 C24.7110164,8.8361166 25.0077336,8.77084431 25.2192235,8.64189174 C25.4291351,8.51293917 25.5838068,8.35692249 25.6863952,8.17702569 C25.785827,7.9971289 25.8473801,7.8156401 25.8710543,7.62937527 C25.8947285,7.44470246 25.9041982,7.29664581 25.9041982,7.18679732 L25.9041982,6.45129007 Z" id="Fill-9"></path>
            </g>
            <polygon id="Fill-12" fill="#FEFEFE" points="42.1180556 19.9637681 44.0703914 19.9637681 44.0703914 10.0662604 42.1180556 10.0662604"></polygon>
            <polygon id="Fill-13" fill="#FEFEFE" points="45.7323232 19.9637681 47.6846591 19.9637681 47.6846591 10.0662604 45.7323232 10.0662604"></polygon>
            <polygon id="Fill-14" fill="#FEFEFE" points="49.2787247 17.0249231 53.415404 17.0249231 53.415404 15.3342117 49.2787247 15.3342117"></polygon>
            <g id="Group-19" transform="translate(7.891414, 21.148221)" fill="#FEFEFE">
                <path d="M1.28582702,5.56756697 L1.28582702,4.25097716 L2.45375631,4.25097716 L2.45375631,3.69695872 C2.45375631,3.0585639 2.65104167,2.5363856 3.04561237,2.1304238 C3.4386048,1.72287 4.03361742,1.5190931 4.83065025,1.5190931 C5.00426136,1.5190931 5.18102904,1.52705314 5.35306187,1.5397892 C5.52825126,1.55411726 5.69712753,1.56685332 5.86284722,1.57481335 L5.86284722,3.04423584 C5.63241793,3.01717172 5.39567551,3.00284365 5.1478851,3.00284365 C4.8811553,3.00284365 4.69176136,3.06493193 4.578125,3.19070048 C4.46448864,3.31487703 4.40609217,3.52502196 4.40609217,3.82113527 L4.40609217,4.25097716 L5.75236742,4.25097716 L5.75236742,5.56756697 L4.40609217,5.56756697 L4.40609217,11.4181928 L2.45375631,11.4181928 L2.45375631,5.56756697 L1.28582702,5.56756697 Z" id="Fill-15"></path>
                <path d="M8.52840909,4.25002196 L8.52840909,5.58093983 L8.55681818,5.58093983 C8.6467803,5.35965086 8.76988636,5.15428195 8.92613636,4.96324111 C9.08396465,4.77379227 9.26073232,4.61299956 9.46433081,4.47927097 C9.66477273,4.34554238 9.87941919,4.24046992 10.1082702,4.16723759 C10.3371212,4.09241326 10.5770202,4.0557971 10.8232323,4.0557971 C10.9510732,4.0557971 11.0931187,4.07967721 11.250947,4.12584541 L11.250947,5.95506148 C11.1578283,5.93754941 11.0489268,5.92003733 10.9210859,5.90730127 C10.7932449,5.89297321 10.6669823,5.88660518 10.5486111,5.88660518 C10.1919192,5.88660518 9.88888889,5.94550944 9.64109848,6.06650198 C9.39646465,6.1859025 9.19602273,6.34987923 9.04292929,6.55843215 C8.89141414,6.76539306 8.78409091,7.00897014 8.7209596,7.28597936 C8.65625,7.56298858 8.62626263,7.86387791 8.62626263,8.18705534 L8.62626263,11.4172376 L6.67392677,11.4172376 L6.67392677,4.25002196 L8.52840909,4.25002196 Z" id="Fill-17"></path>
            </g>
            <path d="M20.0347222,24.2892512 L21.9854798,24.2892512 L21.9854798,22.666996 L20.0347222,22.666996 L20.0347222,24.2892512 Z M20.0347222,32.5660957 L21.9854798,32.5660957 L21.9854798,25.3988801 L20.0347222,25.3988801 L20.0347222,32.5660957 Z" id="Fill-20" fill="#FEFEFE"></path>
            <g id="Group-27" transform="translate(22.095960, 21.148221)" fill="#FEFEFE">
                <path d="M3.5853851,9.69834761 C3.88052399,9.98490887 4.30034722,10.1281895 4.85116793,10.1281895 C5.24573864,10.1281895 5.58506944,10.0294851 5.86758207,9.83048419 C6.1500947,9.63148331 6.32528409,9.42133838 6.38999369,9.20004941 L8.1071654,9.20004941 C7.83254419,10.0581412 7.41272096,10.6726559 6.84296086,11.0435935 C6.27477904,11.4129392 5.58822601,11.597612 4.78330177,11.597612 C4.22301136,11.597612 3.71796086,11.5068676 3.27130682,11.3269708 C2.82149621,11.147074 2.44113005,10.8907609 2.12863005,10.5580314 C1.81928662,10.2253019 1.57938763,9.82730018 1.4073548,9.36561814 C1.24005682,8.9039361 1.15325126,8.39449385 1.15325126,7.84047541 C1.15325126,7.30396904 1.2416351,6.80567084 1.41366793,6.3439888 C1.58885732,5.88230676 1.83664773,5.48112099 2.15861742,5.14520751 C2.47900884,4.80770202 2.859375,4.54183685 3.30445076,4.34761199 C3.74952652,4.15338713 4.24037247,4.0562747 4.78330177,4.0562747 C5.38778409,4.0562747 5.91493056,4.17408322 6.36316288,4.40970026 C6.80981692,4.6453173 7.1791351,4.9621267 7.46953914,5.35853645 C7.7583649,5.75653821 7.96511995,6.21026021 8.09296086,6.71811045 C8.22238005,7.22596069 8.26972854,7.75769104 8.23027146,8.31170949 L3.10558712,8.31170949 C3.13241793,8.9501043 3.29182449,9.41178634 3.5853851,9.69834761 M5.79182449,5.92847497 C5.55823864,5.66897782 5.203125,5.54002525 4.72806187,5.54002525 C4.41398359,5.54002525 4.15672348,5.59256148 3.94996843,5.69922596 C3.74636995,5.80589043 3.57907197,5.936435 3.45596591,6.0940437 C3.33285985,6.25006039 3.24447601,6.41722112 3.19397096,6.5923419 C3.14504419,6.76905468 3.11347854,6.92507137 3.10558712,7.06516798 L6.27951389,7.06516798 C6.18797348,6.56527778 6.02698864,6.18638011 5.79182449,5.92847497" id="Fill-21"></path>
                <path d="M11.3104482,4.25002196 L11.3104482,5.24821036 L11.3499053,5.24821036 C11.599274,4.83269653 11.9196654,4.5302152 12.3126578,4.34076636 C12.7072285,4.15131752 13.1096907,4.0557971 13.5216225,4.0557971 C14.0440341,4.0557971 14.473327,4.12743742 14.807923,4.27071805 C15.1425189,4.41399868 15.4060922,4.61299956 15.5986427,4.86612868 C15.7911932,5.1208498 15.9253472,5.43129117 16.0026831,5.79586078 C16.0800189,6.16043039 16.119476,6.56480018 16.119476,7.00897014 L16.119476,11.4172376 L14.1687184,11.4172376 L14.1687184,7.36876372 C14.1687184,6.77812912 14.077178,6.33555116 13.8940972,6.04580588 C13.7110164,5.7544686 13.3843119,5.60800395 12.9187184,5.60800395 C12.3868371,5.60800395 12.0001578,5.76879666 11.7634154,6.08719807 C11.5250947,6.40559947 11.4067235,6.93096179 11.4067235,7.66010101 L11.4067235,11.4172376 L9.45438763,11.4172376 L9.45438763,4.25002196 L11.3104482,4.25002196 Z" id="Fill-23"></path>
                <path d="M22.7159091,10.502152 C22.4870581,10.8906017 22.1871843,11.1692029 21.8162879,11.3411397 C21.4453914,11.5114844 21.0255682,11.5974528 20.5583965,11.5974528 C20.0265152,11.5974528 19.5593434,11.4939723 19.1568813,11.2854194 C18.7528409,11.0768665 18.4214015,10.7950812 18.1609848,10.4400637 C17.8989899,10.0850461 17.7017045,9.6743083 17.5691288,9.21262626 C17.436553,8.75094422 17.3702652,8.2701581 17.3702652,7.7702679 C17.3702652,7.29107378 17.436553,6.82620773 17.5691288,6.37885375 C17.7017045,5.92990777 17.8989899,5.53509003 18.1609848,5.19280852 C18.4214015,4.85052701 18.7496843,4.57510979 19.1426768,4.36814888 C19.5372475,4.15959596 19.9933712,4.0561155 20.5173611,4.0561155 C20.9387626,4.0561155 21.3396465,4.1468599 21.7200126,4.3267567 C22.1003788,4.50665349 22.4002525,4.77251866 22.6196338,5.12276021 L22.6480429,5.12276021 L22.6480429,1.5184563 L24.5988005,1.5184563 L24.5988005,11.417556 L22.7443182,11.417556 L22.7443182,10.502152 L22.7159091,10.502152 Z M22.6338384,6.95993632 C22.5785985,6.68770312 22.4854798,6.44731006 22.352904,6.23875714 C22.21875,6.03179622 22.0467172,5.86304348 21.8368056,5.73409091 C21.6253157,5.60354633 21.3601641,5.53986605 21.0397727,5.53986605 C20.7193813,5.53986605 20.4479167,5.60354633 20.2285354,5.73409091 C20.009154,5.86304348 19.8323864,6.03338823 19.6998106,6.24671717 C19.5672348,6.45845411 19.4709596,6.70203118 19.4109848,6.97426438 C19.3510101,7.24649758 19.322601,7.53146684 19.322601,7.82758015 C19.322601,8.10458937 19.3541667,8.38159859 19.417298,8.65860782 C19.4820076,8.93561704 19.584596,9.18397014 19.7250631,9.40048309 C19.8686869,9.61699605 20.0486111,9.79370883 20.2632576,9.92743742 C20.477904,10.061166 20.7367424,10.1280303 21.0397727,10.1280303 C21.3601641,10.1280303 21.6284722,10.062758 21.8431187,9.93380545 C22.0593434,9.80485288 22.2282197,9.63132411 22.3576389,9.41481116 C22.4870581,9.19670619 22.5785985,8.9499451 22.6338384,8.67293588 C22.6875,8.39433465 22.7159091,8.10936539 22.7159091,7.81325209 C22.7159091,7.51713878 22.6875,7.23376153 22.6338384,6.95993632 L22.6338384,6.95993632 Z" id="Fill-25"></path>
            </g>
            <polygon id="Fill-28" fill="#FEFEFE" points="48.2875631 32.5660957 50.239899 32.5660957 50.239899 22.6685881 48.2875631 22.6685881"></polygon>
            <g id="Group-33" transform="translate(7.891414, 24.332235)" fill="#FEFEFE">
                <path d="M46.5812816,10.3684234 C46.2056503,10.6167765 45.6832386,10.742545 45.015625,10.742545 C44.8136048,10.742545 44.6131629,10.736177 44.4174558,10.7218489 C44.2201705,10.7075209 44.0213068,10.6916008 43.8192866,10.6724967 L43.8192866,9.05183355 C44.0023674,9.06934563 44.1901831,9.08844971 44.3827336,9.1075538 C44.5752841,9.12506588 44.7678346,9.1298419 44.9603851,9.12028986 C45.2160669,9.09322574 45.4070391,8.99133729 45.5301452,8.81621651 C45.6532513,8.63950373 45.7148043,8.44527888 45.7148043,8.23354194 C45.7148043,8.07593325 45.6879735,7.92787659 45.6311553,7.78937198 L43.1453598,1.06632631 L45.2208018,1.06632631 L46.829072,5.97448397 L46.8559028,5.97448397 L48.4089331,1.06632631 L50.4291351,1.06632631 L47.4603851,9.12028986 C47.2504735,9.70296443 46.9569129,10.1184783 46.5812816,10.3684234" id="Fill-29"></path>
                <path d="M32.4614899,49.7263395 C15.2881944,49.7263395 1.31881313,35.6338933 1.31881313,18.3112648 L10.8958333,18.3112648 C10.8958333,30.3054458 20.5691288,40.0644488 32.4614899,40.0644488 C44.3522727,40.0644488 54.0271465,30.3054458 54.0271465,18.3112648 L63.6057449,18.3112648 C63.6057449,35.6338933 49.6347854,49.7263395 32.4614899,49.7263395" id="Fill-31"></path>
            </g>
        </g>
    </g>
</svg>