<?xml version="1.0" encoding="UTF-8"?>
<svg width="173px" height="159px" viewBox="0 0 173 159" version="1.1" xmlns="http://www.w3.org/2000/svg" xmlns:xlink="http://www.w3.org/1999/xlink">
    <!-- Generator: Sketch 60.1 (88133) - https://sketch.com -->
    <title>Group</title>
    <desc>Created with Sketch.</desc>
    <g id="Page-1" stroke="none" stroke-width="1" fill="none" fill-rule="evenodd">
        <g id="Group">
            <g id="Group-9" transform="translate(103.000000, 19.000000)">
                <g id="Group-9-Copy-3" fill="#EA2C13">
                    <circle id="Combined-Shape" opacity="0.235793341" cx="35" cy="35" r="35"></circle>
                    <circle id="Combined-Shape-Copy-2" cx="35" cy="35" r="30"></circle>
                </g>
                <g id="drops" transform="translate(18.000000, 15.000000)" fill="#FFFFFF" fill-rule="nonzero">
                    <path d="M32.0905183,18.86 C32.0905183,18.4070781 31.7174715,18.04 31.257185,18.04 C30.7968985,18.04 30.4238516,18.4070781 30.4238516,18.86 C30.4238516,21.5730469 28.1810131,23.78 25.4238516,23.78 C24.9635651,23.78 24.5905183,24.1470781 24.5905183,24.6 C24.5905183,25.0529219 24.9635651,25.42 25.4238516,25.42 C29.0999584,25.42 32.0905183,22.477289 32.0905183,18.86 Z" id="Path"></path>
                    <path d="M14.7291901,27.4142547 C14.2887605,28.0457253 10.4238516,33.6525408 10.4238516,36.0101136 C10.4238516,38.7148251 12.7135651,41 15.4238516,41 C18.1341381,41 20.4238516,38.7148251 20.4238516,36.0101136 C20.4238516,33.6525408 16.5589428,28.0457253 16.1185131,27.4142547 C15.9638907,27.1930389 15.7031485,27.06 15.4238516,27.06 C15.1445548,27.06 14.8838126,27.1930389 14.7291901,27.4142547 L14.7291901,27.4142547 Z M18.757185,36.0101136 C18.757185,37.8243928 17.1995678,39.4159091 15.4238516,39.4159091 C13.6481355,39.4159091 12.0905183,37.8243928 12.0905183,36.0101136 C12.0905183,34.7895592 13.920922,31.6040514 15.4238516,29.3170202 C16.9267813,31.6040514 18.757185,34.7895592 18.757185,36.0101136 Z" id="Shape"></path>
                    <path d="M6.25718498,13.12 C5.98342198,13.12 5.72723706,13.252289 5.57163814,13.4739453 C5.04461989,14.2244375 0.423851643,20.890461 0.423851643,23.78 C0.423851643,26.9450078 3.04071364,29.52 6.25718498,29.52 C9.47365631,29.52 12.0905183,26.9450078 12.0905183,23.78 C12.0905183,20.890461 7.46975006,14.2244375 6.94273181,13.4739453 C6.78713289,13.252289 6.53094798,13.12 6.25718498,13.12 Z M6.25718498,27.88 C3.95965898,27.88 2.09051831,26.0407656 2.09051831,23.78 C2.09051831,22.1941328 4.42092198,18.168125 6.25718498,15.4102344 C8.09344798,18.1678047 10.4238516,22.1931719 10.4238516,23.78 C10.4238516,26.0407656 8.55471098,27.88 6.25718498,27.88 Z" id="Shape"></path>
                    <path d="M17.0905183,18.04 C17.0905183,18.4929219 16.7174715,18.86 16.257185,18.86 C15.7968985,18.86 15.4238516,18.4929219 15.4238516,18.04 C15.4238516,17.5870781 15.7968985,17.22 16.257185,17.22 C16.7174715,17.22 17.0905183,17.5870781 17.0905183,18.04 Z" id="Path"></path>
                    <path d="M25.5262947,0.365050401 C25.3768217,0.137743239 25.118814,0 24.8414479,0 C24.5640818,0 24.3060741,0.137743239 24.156601,0.365050401 C23.9227122,0.72176199 18.4004605,9.16548186 16.0952115,15.118397 C15.9368526,15.526994 16.1491614,15.9831525 16.5690189,16.1369555 C16.988559,16.2910673 17.4572887,16.0847613 17.6156476,15.6761644 C19.3909178,11.0911071 23.2705527,4.76820013 24.8436694,2.28141036 C27.6211389,6.6524406 32.9656732,15.7737581 32.9656732,19.2123967 C32.9656732,23.5719998 29.3211965,27.1187328 24.8414479,27.1187328 C21.2144256,27.1187328 17.9977401,24.7483761 17.0187075,21.3542108 C16.8974788,20.9338779 16.4490596,20.6886579 16.0168254,20.8066352 C15.5849086,20.9246126 15.3332481,21.3613142 15.4541594,21.7816471 C16.6293159,25.8549544 20.4895923,28.7 24.8414479,28.7 C30.2170828,28.7 34.5905183,24.4438587 34.5905183,19.2123967 C34.5905183,14.8543377 27.843603,3.89109097 25.5262947,0.365050401 Z" id="Path"></path>
                </g>
            </g>
            <g id="Group-10">
                <g id="Group-9-Copy-4" fill="#EA2C13">
                    <g id="Group-9-Copy-3">
                        <circle id="Combined-Shape" opacity="0.235793341" cx="35" cy="35" r="35"></circle>
                        <circle id="Combined-Shape-Copy-2" cx="35" cy="35" r="30"></circle>
                    </g>
                </g>
                <g id="Group-6" transform="translate(21.000000, 12.000000)" fill="#FFFFFF" stroke="#EA2C13" stroke-width="0.5">
                    <path d="M21.4331101,30.9753389 C21.2637631,31.1446839 21.1662668,31.3794195 21.1662668,31.619131 C21.1662668,31.858518 21.2637631,32.0933077 21.4331101,32.2629772 C21.6025112,32.432268 21.8377034,32.529732 22.0771157,32.529732 C22.3177183,32.529732 22.5524776,32.432268 22.7218787,32.2629772 C22.8916045,32.0933077 22.9880187,31.858518 22.9880187,31.619131 C22.9880187,31.3794195 22.8916045,31.1446839 22.7218787,30.9753389 C22.5518284,30.8049663 22.3177183,30.70853 22.0771157,30.70853 C21.8377034,30.70853 21.6035392,30.8049663 21.4331101,30.9753389" id="Fill-1"></path>
                    <g id="Group-5" transform="translate(0.000000, 0.049219)">
                        <path d="M19.3088222,16.3032404 L19.3088222,13.6097849 L26.7738334,21.0723209 C27.1451524,21.4435168 27.1451524,22.0476094 26.7738334,22.4188594 C26.4024603,22.7901094 25.7981674,22.7901094 25.4267942,22.4188594 L19.3088222,16.3032404 Z M16.1653521,8.13281971 C14.6840256,8.13281971 13.4787942,6.92804207 13.4787942,5.44720673 L13.4787942,4.59539784 C13.4787942,3.11418389 14.6840256,1.90935216 16.1653521,1.90935216 C17.6470032,1.90935216 18.8522345,3.11418389 18.8522345,4.59539784 L18.8522345,5.44720673 C18.8522345,6.92804207 17.6470032,8.13281971 16.1653521,8.13281971 L16.1653521,8.13281971 Z M17.40402,21.2408005 L11.6882606,21.2408005 L11.6882606,16.6979099 C11.6882606,16.3125433 11.4560983,15.96547 11.1003614,15.8178137 C10.7442457,15.6708606 10.3345666,15.7523149 10.0622047,16.024262 L3.66548638,22.4188594 C3.48542668,22.5988594 3.24650131,22.6978377 2.99199384,22.6978377 C2.73748638,22.6978377 2.49823638,22.5988594 2.31850131,22.4188594 C2.1384416,22.2391839 2.03943041,22.0000132 2.03943041,21.7455901 C2.03943041,21.491113 2.1384416,21.2519964 2.31850131,21.0723209 L12.4622252,10.9315817 C12.4845703,10.912976 12.5064826,10.8932885 12.5277457,10.8720325 C13.0672756,10.3341959 13.7838894,10.0373149 14.5459509,10.0373149 C16.1217979,10.0373149 17.40402,11.3191659 17.40402,12.8944904 L17.40402,21.2408005 Z M13.8036375,30.8008666 C13.7783166,30.8477596 13.7563502,30.8968702 13.7388744,30.9489555 L10.0584715,42.05303 C9.81218787,42.8048329 8.99986325,43.2162151 8.24824384,42.9696346 C7.53676996,42.7371166 7.12784832,42.0114375 7.2967625,41.284244 L10.8399024,26.1236791 C11.0330013,26.519863 11.250339,26.9059327 11.4944043,27.2783185 L13.8036375,30.8008666 Z M24.0794845,23.7657764 C24.619339,24.3051274 25.3367644,24.6023329 26.1002868,24.6023329 C26.8634845,24.6023329 27.5812345,24.3051274 28.1208185,23.7657764 C28.6607271,23.2260469 28.9580312,22.5088594 28.9580312,21.7455901 C28.9580312,20.9822668 28.6607271,20.2650793 28.1208185,19.7253498 L18.0317401,9.63972476 C19.6358838,8.92329447 20.7573614,7.31411178 20.7573614,5.44720673 L20.7573614,4.59539784 C20.7573614,2.06409375 18.6974416,0.00485697115 16.1653521,0.00485697115 C13.6335871,0.00485697115 11.5732886,2.06409375 11.5732886,4.59539784 L11.5732886,5.44720673 C11.5732886,6.61369111 12.0119677,7.67941226 12.7316114,8.48995312 C12.1891058,8.71349279 11.6878819,9.03784976 11.2528819,9.45447837 C11.2272364,9.47530168 11.2019696,9.49796394 11.1777308,9.52181611 L9.14199571,11.5572007 C9.14199571,11.5572007 2.73781101,17.7789375 0.476243843,20.039268 C-0.229927799,20.7450433 -0.289929664,22.61303 1.26297705,23.9541599 C1.26411325,23.9550793 2.79873265,25.2143221 4.66755541,24.059845 C4.78885765,23.9716839 4.90437071,23.8738413 5.01247146,23.7657764 L9.78313377,18.9966959 L9.78313377,21.5458486 C9.78313377,21.711732 9.7883278,21.8768582 9.79617295,22.0420385 C9.7883278,22.091149 9.78313377,22.1413413 9.78313377,22.1930481 C9.78313377,22.2153858 9.78497332,22.2372909 9.78648825,22.25925 L7.34778302,32.69422 L6.74906287,35.2560288 L6.37087257,36.8742981 L6.30535205,37.1545745 L5.44114123,40.852363 C5.04747705,42.549274 5.99928302,44.2376935 7.65547519,44.7796406 C7.99968787,44.8926815 8.34909459,44.9459026 8.69287444,44.9459026 C10.0979136,44.9459026 11.4084323,44.0520144 11.8683744,42.6489555 L15.1264379,32.8192139 L21.8126151,43.0202055 C22.4333017,44.073649 23.5335703,44.6684387 24.6799901,44.6684387 C25.1555144,44.6684387 25.6389379,44.566107 26.0992047,44.3518702 C27.7687606,43.5751875 28.495492,41.585506 27.7186058,39.916125 C27.7089211,39.8952476 27.6984248,39.8744243 27.6869547,39.8543582 L24.5189211,34.1713233 C24.2628987,33.7119663 23.6827905,33.5475433 23.2229024,33.8030481 C22.7633931,34.0594183 22.5985368,34.63928 22.854505,35.098637 L26.0039267,40.7470565 C26.316867,41.4586731 26.0035479,42.2959868 25.2954285,42.6252115 C24.616742,42.9406442 23.8223259,42.6902776 23.4476524,42.0422668 C23.4387252,42.0270144 23.4297979,42.0118161 23.4196804,41.9968882 L13.0881058,26.2345565 C12.4685554,25.2893942 12.0473521,24.241143 11.8393203,23.1452957 L17.4073744,23.1452957 C17.4427588,24.6369483 17.8423744,26.1084808 18.5694304,27.4129399 L19.4434882,28.980476 C19.6995106,29.4398329 20.2795647,29.6046346 20.7395069,29.3486971 C21.1990703,29.0927596 21.3638726,28.5128978 21.1079043,28.0534868 L20.2338465,26.4856262 C19.632908,25.4076815 19.31288,24.1857043 19.3092009,22.9544784 L19.3092009,18.9966959 L24.0794845,23.7657764 Z" id="Fill-3"></path>
                    </g>
                </g>
            </g>
            <line x1="35.5" y1="63.5" x2="35.5" y2="139.5" id="Line" stroke="#EA2C13" stroke-linecap="square"></line>
            <line x1="138.5" y1="82.5" x2="138.5" y2="158.5" id="Line-Copy-4" stroke="#EA2C13" stroke-linecap="square"></line>
        </g>
    </g>
</svg>