<?xml version="1.0" encoding="UTF-8"?>
<svg width="215px" height="269px" viewBox="0 0 215 269" version="1.1" xmlns="http://www.w3.org/2000/svg" xmlns:xlink="http://www.w3.org/1999/xlink">
    <!-- Generator: Sketch 60.1 (88133) - https://sketch.com -->
    <title>Group 3</title>
    <desc>Created with Sketch.</desc>
    <g id="Page-1" stroke="none" stroke-width="1" fill="none" fill-rule="evenodd">
        <g id="Group-3">
            <g id="Group-9-Copy" transform="translate(145.000000, 199.000000)">
                <circle id="Combined-Shape" fill="#EA2C13" opacity="0.235793341" cx="35" cy="35" r="35"></circle>
                <circle id="Combined-Shape-Copy-2" fill="#EA2C13" cx="35" cy="35" r="30"></circle>
                <g id="wind" transform="translate(15.000000, 20.000000)" fill="#FFFFFF" fill-rule="nonzero" stroke="#EA2C13" stroke-width="0.5">
                    <path d="M22.7393988,18.8888889 L6.66666667,18.8888889 L6.66666667,21.2874191 L22.7393988,21.2874191 C24.5346796,21.2874191 25.9952207,22.7857009 25.9952207,24.6273723 C25.9952207,26.2672474 24.6946845,27.6014698 23.0960389,27.6014698 C21.6781294,27.6014698 20.5246605,26.4181949 20.5246605,24.9637262 L18.1865478,24.9637262 C18.1865478,27.7407445 20.388972,30 23.0960389,30 C25.9839198,30 28.3333333,27.589797 28.3333333,24.6273723 C28.3333333,21.4631514 25.8239149,18.8888889 22.7393988,18.8888889 Z" id="Path"></path>
                    <path d="M32.0569531,0 C27.9780469,0 24.6596094,3.35608862 24.6596094,7.4812743 L27.0033594,7.4812743 C27.0033594,4.66309535 29.2703906,2.37034228 32.0569531,2.37034228 C35.144375,2.37034228 37.65625,4.9106381 37.65625,8.03316899 C37.65625,11.4866787 34.878125,14.2963244 31.4633594,14.2963244 L0,14.2963244 L0,16.6666667 L31.4633594,16.6666667 C36.1704688,16.6666667 40,12.7937644 40,8.033248 C40,3.60371038 36.4367969,0 32.0569531,0 Z" id="Path"></path>
                    <path d="M18.2842919,2.77777778 C15.9533418,2.77777778 14.0569325,4.70852982 14.0569325,7.08169196 L16.4401546,7.08169196 C16.4401546,6.04643617 17.2674505,5.20415853 18.2842919,5.20415853 C19.4479398,5.20415853 20.3945557,6.16791697 20.3945557,7.35263781 C20.3945557,8.69984528 19.3181337,9.79584147 17.9948893,9.79584147 L6.11111111,9.79584147 L6.11111111,12.2222222 L17.9948893,12.2222222 C20.6322423,12.2222222 22.7777778,10.0377516 22.7777778,7.35263781 C22.7777778,4.8300915 20.7620485,2.77777778 18.2842919,2.77777778 Z" id="Path"></path>
                </g>
            </g>
            <g id="Group-9-Copy-2">
                <circle id="Combined-Shape" fill="#EA2C13" opacity="0.235793341" cx="35" cy="35" r="35"></circle>
                <circle id="Combined-Shape-Copy-2" fill="#EA2C13" cx="35" cy="35" r="30"></circle>
                <g id="wind" transform="translate(15.000000, 20.000000)" fill="#FFFFFF" fill-rule="nonzero" stroke="#EA2C13" stroke-width="0.5">
                    <path d="M22.7393988,18.8888889 L6.66666667,18.8888889 L6.66666667,21.2874191 L22.7393988,21.2874191 C24.5346796,21.2874191 25.9952207,22.7857009 25.9952207,24.6273723 C25.9952207,26.2672474 24.6946845,27.6014698 23.0960389,27.6014698 C21.6781294,27.6014698 20.5246605,26.4181949 20.5246605,24.9637262 L18.1865478,24.9637262 C18.1865478,27.7407445 20.388972,30 23.0960389,30 C25.9839198,30 28.3333333,27.589797 28.3333333,24.6273723 C28.3333333,21.4631514 25.8239149,18.8888889 22.7393988,18.8888889 Z" id="Path"></path>
                    <path d="M32.0569531,0 C27.9780469,0 24.6596094,3.35608862 24.6596094,7.4812743 L27.0033594,7.4812743 C27.0033594,4.66309535 29.2703906,2.37034228 32.0569531,2.37034228 C35.144375,2.37034228 37.65625,4.9106381 37.65625,8.03316899 C37.65625,11.4866787 34.878125,14.2963244 31.4633594,14.2963244 L0,14.2963244 L0,16.6666667 L31.4633594,16.6666667 C36.1704688,16.6666667 40,12.7937644 40,8.033248 C40,3.60371038 36.4367969,0 32.0569531,0 Z" id="Path"></path>
                    <path d="M18.2842919,2.77777778 C15.9533418,2.77777778 14.0569325,4.70852982 14.0569325,7.08169196 L16.4401546,7.08169196 C16.4401546,6.04643617 17.2674505,5.20415853 18.2842919,5.20415853 C19.4479398,5.20415853 20.3945557,6.16791697 20.3945557,7.35263781 C20.3945557,8.69984528 19.3181337,9.79584147 17.9948893,9.79584147 L6.11111111,9.79584147 L6.11111111,12.2222222 L17.9948893,12.2222222 C20.6322423,12.2222222 22.7777778,10.0377516 22.7777778,7.35263781 C22.7777778,4.8300915 20.7620485,2.77777778 18.2842919,2.77777778 Z" id="Path"></path>
                </g>
            </g>
            <line x1="159" y1="236.25" x2="78" y2="236.75" id="Line-Copy-2" stroke="#EA2C13" stroke-linecap="square"></line>
            <line x1="34.75" y1="61.5" x2="34.75" y2="103.5" id="Line-Copy-3" stroke="#EA2C13" stroke-linecap="square"></line>
        </g>
    </g>
</svg>