<?xml version="1.0" encoding="UTF-8"?>
<svg width="146px" height="196px" viewBox="0 0 146 196" version="1.1" xmlns="http://www.w3.org/2000/svg" xmlns:xlink="http://www.w3.org/1999/xlink">
    <!-- Generator: Sketch 60.1 (88133) - https://sketch.com -->
    <title>Group 2</title>
    <desc>Created with Sketch.</desc>
    <g id="Page-1" stroke="none" stroke-width="1" fill="none" fill-rule="evenodd">
        <g id="Group-2">
            <g id="Group-9">
                <g id="Group-9-Copy-3" fill="#EA2C13">
                    <circle id="Combined-Shape" opacity="0.235793341" cx="35" cy="35" r="35"></circle>
                    <circle id="Combined-Shape-Copy-2" cx="35" cy="35" r="30"></circle>
                </g>
                <g id="speedometer" transform="translate(15.000000, 15.000000)">
                    <path d="M20.0390625,3.30841063 C10.8135986,3.30841063 3.34747313,10.7739258 3.34747313,20 C3.34747313,29.2254639 10.8126831,36.6915894 20.0390625,36.6915894 C29.2227173,36.6915894 36.7306519,29.222107 36.7306519,20 C36.7306519,10.8389282 29.3045044,3.30841063 20.0390625,3.30841063 Z M35.5462647,19.4140625 L34.5526123,19.4140625 C34.2288208,19.4140625 33.9666748,19.6762085 33.9666748,20 C33.9666748,20.3234863 34.2288208,20.5859375 34.5526123,20.5859375 L35.5462647,20.5859375 C35.4568481,22.9833984 34.821167,25.2435303 33.7600708,27.2451782 L32.9010009,26.7492676 C32.6208496,26.5875244 32.262268,26.6833496 32.1005249,26.9638062 C31.9387817,27.2439575 32.0349121,27.6022339 32.3150634,27.7642822 L33.1723023,28.2592773 C30.4214477,32.6177978 25.5630493,35.5197144 20.0390625,35.5197144 C14.5147705,35.5197144 9.65637203,32.6177978 6.90551758,28.2592773 L7.76275633,27.7642822 C8.04321289,27.6022339 8.13903813,27.2439575 7.97729492,26.9638062 C7.81555172,26.6833496 7.45697023,26.5875244 7.17681883,26.7492676 L6.31805422,27.2451782 C5.25665281,25.2435303 4.62097172,22.9833984 4.53155516,20.5859375 L5.52551266,20.5859375 C5.84899906,20.5859375 6.11145016,20.3234863 6.11145016,20 C6.11145016,19.6762085 5.84899906,19.4140625 5.52551266,19.4140625 L4.53155516,19.4140625 C4.62097172,17.0162964 5.25665281,14.7564697 6.31805422,12.7548218 L7.17681883,13.2507324 C7.45758055,13.4124756 7.81585695,13.31604 7.97729492,13.0361938 C8.13903813,12.7560425 8.04321289,12.3974609 7.76275633,12.2357178 L6.90551758,11.7407227 C8.14575195,9.77539063 9.81445313,8.10668945 11.7797852,6.86645508 L12.2747803,7.72369383 C12.4368286,8.00445555 12.7954102,8.09997563 13.0752563,7.93823242 C13.3554077,7.77648922 13.4515381,7.41821289 13.2897949,7.13775633 L12.7938843,6.27899172 C14.7955322,5.21759031 17.0553589,4.58190922 19.453125,4.49249266 L19.453125,5.48645016 C19.453125,5.80993656 19.715271,6.07238766 20.0390625,6.07238766 C20.3625488,6.07238766 20.625,5.80993656 20.625,5.48645016 L20.625,4.49249266 C23.0224609,4.58190922 25.2825928,5.21759031 27.2842407,6.27899172 L26.7883301,7.13775633 C26.6265869,7.41821289 26.7224121,7.77648922 27.0028687,7.93823242 C27.2827148,8.09997563 27.6412964,8.00445555 27.8033447,7.72369383 L28.2980347,6.86645508 C30.2633667,8.10668945 31.9320679,9.77539063 33.1723023,11.7407227 L32.3150634,12.2357178 C32.0349121,12.3974609 31.9387817,12.7560425 32.1005249,13.0361938 C32.2625733,13.3166504 32.6211548,13.4124756 32.9010009,13.2507324 L33.7600708,12.7548218 C34.821167,14.7564697 35.4568481,17.0162964 35.5462647,19.4140625 L35.5462647,19.4140625 Z" id="Shape" fill="#FFFFFF" fill-rule="nonzero"></path>
                    <path d="M9.21081891,13.3598696 C7.02838164,17.3621359 7.02838164,21.6209213 9.21081891,26.1362257 C16.5271935,21.8774403 20.1853808,19.7480477 20.1853808,19.7480477 L9.21081891,13.3598696 Z" id="Path-2" fill="#FFFFFF" opacity="0.5"></path>
                    <polygon id="Path-4" fill="#EA2C13" points="10.7756524 14.2757188 18.2355609 20.824482 20.1853808 20.5999545 21.121666 19.199875 20.4140806 17.8908307 18.8464101 16.8275452"></polygon>
                    <path d="M15.3510742,23.6550903 C16.6474609,23.6550903 17.7018433,22.600708 17.7018433,21.3043212 C17.7018433,21.0617065 17.664917,20.8276367 17.5965577,20.6072998 L16.2662964,10.7995605 C16.2034302,10.3363037 15.8186035,10 15.3510742,10 C14.8835449,10 14.4984131,10.3363037 14.4355469,10.7995605 L13.1055908,20.6072998 C13.0369262,20.8276367 13,21.0617065 13,21.3043212 C13,22.600708 14.0546875,23.6550903 15.3510742,23.6550903 L15.3510742,23.6550903 Z M15.3510742,12.7706909 L16.2116699,19.1162109 C15.668457,18.9025878 15.0501709,18.8961791 14.4904785,19.1162109 L15.3510742,12.7706909 Z M15.3510742,20.1254272 C16.0026245,20.1254272 16.5299683,20.6588745 16.5299683,21.3043212 C16.5299683,21.9543456 16.0010986,22.4832153 15.3510742,22.4832153 C14.7010498,22.4832153 14.171875,21.9543456 14.171875,21.3043212 C14.1721802,20.6671142 14.6925048,20.1254272 15.3510742,20.1254272 L15.3510742,20.1254272 Z" id="Shape" fill="#FFFFFF" fill-rule="nonzero" transform="translate(15.350922, 16.827545) rotate(-58.000000) translate(-15.350922, -16.827545) "></path>
                    <path d="M39.4451905,19.2175293 C39.7677612,19.1949463 40.0112915,18.9151001 39.9890137,18.5922241 C39.263916,8.168335 30.5813598,0 20.0390625,0 C8.98498531,0 0.0390625,8.94500734 0.0390625,20 C0.0390625,31.0540772 8.98406984,40 20.0390625,40 C30.5734253,40 39.2630005,31.8383789 39.9890137,21.4080811 C40.0112915,21.0852051 39.7680664,20.8053589 39.4451905,20.7827759 C39.1238403,20.7608032 38.8421631,21.0040283 38.8198852,21.3269043 C38.1369019,31.1404419 29.887085,38.8278198 20.0390625,38.8278198 C9.65728758,38.8278198 1.2109375,30.3817749 1.2109375,20 C1.2109375,9.61822508 9.65728758,1.171875 20.0390625,1.171875 C29.8876953,1.171875 38.137207,8.85955812 38.8198852,18.6737061 C38.8421631,18.996582 39.12323,19.2398071 39.4451905,19.2175293 Z" id="Path" fill="#FFFFFF" fill-rule="nonzero"></path>
                </g>
                <text id="43%" font-family="Helvetica" font-size="7" font-weight="normal" fill="#FFFFFF">
                    <tspan x="29" y="45">43%</tspan>
                </text>
            </g>
            <g id="Group-9-Copy-5" transform="translate(76.000000, 126.000000)">
                <g id="Group-9-Copy-3" fill="#EA2C13">
                    <circle id="Combined-Shape" opacity="0.235793341" cx="35" cy="35" r="35"></circle>
                    <circle id="Combined-Shape-Copy-2" cx="35" cy="35" r="30"></circle>
                </g>
                <g id="speedometer" transform="translate(15.000000, 15.000000)">
                    <path d="M20.0390625,3.30841063 C10.8135986,3.30841063 3.34747313,10.7739258 3.34747313,20 C3.34747313,29.2254639 10.8126831,36.6915894 20.0390625,36.6915894 C29.2227173,36.6915894 36.7306519,29.222107 36.7306519,20 C36.7306519,10.8389282 29.3045044,3.30841063 20.0390625,3.30841063 Z M35.5462647,19.4140625 L34.5526123,19.4140625 C34.2288208,19.4140625 33.9666748,19.6762085 33.9666748,20 C33.9666748,20.3234863 34.2288208,20.5859375 34.5526123,20.5859375 L35.5462647,20.5859375 C35.4568481,22.9833984 34.821167,25.2435303 33.7600708,27.2451782 L32.9010009,26.7492676 C32.6208496,26.5875244 32.262268,26.6833496 32.1005249,26.9638062 C31.9387817,27.2439575 32.0349121,27.6022339 32.3150634,27.7642822 L33.1723023,28.2592773 C30.4214477,32.6177978 25.5630493,35.5197144 20.0390625,35.5197144 C14.5147705,35.5197144 9.65637203,32.6177978 6.90551758,28.2592773 L7.76275633,27.7642822 C8.04321289,27.6022339 8.13903813,27.2439575 7.97729492,26.9638062 C7.81555172,26.6833496 7.45697023,26.5875244 7.17681883,26.7492676 L6.31805422,27.2451782 C5.25665281,25.2435303 4.62097172,22.9833984 4.53155516,20.5859375 L5.52551266,20.5859375 C5.84899906,20.5859375 6.11145016,20.3234863 6.11145016,20 C6.11145016,19.6762085 5.84899906,19.4140625 5.52551266,19.4140625 L4.53155516,19.4140625 C4.62097172,17.0162964 5.25665281,14.7564697 6.31805422,12.7548218 L7.17681883,13.2507324 C7.45758055,13.4124756 7.81585695,13.31604 7.97729492,13.0361938 C8.13903813,12.7560425 8.04321289,12.3974609 7.76275633,12.2357178 L6.90551758,11.7407227 C8.14575195,9.77539063 9.81445313,8.10668945 11.7797852,6.86645508 L12.2747803,7.72369383 C12.4368286,8.00445555 12.7954102,8.09997563 13.0752563,7.93823242 C13.3554077,7.77648922 13.4515381,7.41821289 13.2897949,7.13775633 L12.7938843,6.27899172 C14.7955322,5.21759031 17.0553589,4.58190922 19.453125,4.49249266 L19.453125,5.48645016 C19.453125,5.80993656 19.715271,6.07238766 20.0390625,6.07238766 C20.3625488,6.07238766 20.625,5.80993656 20.625,5.48645016 L20.625,4.49249266 C23.0224609,4.58190922 25.2825928,5.21759031 27.2842407,6.27899172 L26.7883301,7.13775633 C26.6265869,7.41821289 26.7224121,7.77648922 27.0028687,7.93823242 C27.2827148,8.09997563 27.6412964,8.00445555 27.8033447,7.72369383 L28.2980347,6.86645508 C30.2633667,8.10668945 31.9320679,9.77539063 33.1723023,11.7407227 L32.3150634,12.2357178 C32.0349121,12.3974609 31.9387817,12.7560425 32.1005249,13.0361938 C32.2625733,13.3166504 32.6211548,13.4124756 32.9010009,13.2507324 L33.7600708,12.7548218 C34.821167,14.7564697 35.4568481,17.0162964 35.5462647,19.4140625 L35.5462647,19.4140625 Z" id="Shape" fill="#FFFFFF" fill-rule="nonzero"></path>
                    <path d="M8.63682795,13.3598696 C6.45439068,17.3621359 6.45439068,21.6209213 8.63682795,26.1362257 C15.9532025,21.8774403 19.6113898,19.7480477 19.6113898,19.7480477 L8.63682795,13.3598696 Z" id="Path-2" fill="#FFFFFF" opacity="0.5"></path>
                    <path d="M22.636828,13.3598696 C20.4543907,17.3621359 20.4543907,21.6209213 22.636828,26.1362257 C29.9532025,21.8774403 33.6113898,19.7480477 33.6113898,19.7480477 L22.636828,13.3598696 Z" id="Path-2-Copy-3" fill="#FFFFFF" opacity="0.5" transform="translate(27.305695, 19.748048) scale(-1, 1) translate(-27.305695, -19.748048) "></path>
                    <path d="M12.062837,7 C9.88039972,11.0022663 9.88039972,15.2610517 12.062837,19.7763561 C19.3792116,15.5175707 23.0373988,13.388178 23.0373988,13.388178 L12.062837,7 Z" id="Path-2-Copy" fill="#FFFFFF" opacity="0.5" transform="translate(16.731704, 13.388178) rotate(-300.000000) translate(-16.731704, -13.388178) "></path>
                    <path d="M19.062837,7 C16.8803997,11.0022663 16.8803997,15.2610517 19.062837,19.7763561 C26.3792116,15.5175707 30.0373988,13.388178 30.0373988,13.388178 L19.062837,7 Z" id="Path-2-Copy-2" fill="#FFFFFF" opacity="0.5" transform="translate(23.731704, 13.388178) rotate(-240.000000) translate(-23.731704, -13.388178) "></path>
                    <polygon id="Path-4" fill="#EA2C13" transform="translate(23.173007, 21.274382) rotate(-184.000000) translate(-23.173007, -21.274382) " points="18 18 25.4599085 24.5487632 27.4097284 24.3242357 28.3460136 22.9241562 27.6384282 21.6151119 26.0707577 20.5518263"></polygon>
                    <path d="M17,22.3510742 C17,23.6474609 18.0543823,24.7018433 19.3507691,24.7018433 C19.5933838,24.7018433 19.8274536,24.664917 20.0477905,24.5965577 L29.8555298,23.2662964 C30.3187866,23.2034302 30.6550903,22.8186035 30.6550903,22.3510742 C30.6550903,21.8835449 30.3187866,21.4984131 29.8555298,21.4355469 L20.0477905,20.1055908 C19.8274536,20.0369263 19.5933838,20 19.3507691,20 C18.0543823,20 17,21.0546875 17,22.3510742 L17,22.3510742 Z M27.8843995,22.3510742 L21.5388794,23.2116699 C21.7525025,22.668457 21.7589112,22.0501709 21.5388794,21.4904785 L27.8843995,22.3510742 Z M20.5296631,22.3510742 C20.5296631,23.0026245 19.9962159,23.5299683 19.3507691,23.5299683 C18.7007447,23.5299683 18.171875,23.0010986 18.171875,22.3510742 C18.171875,21.7010498 18.7007447,21.171875 19.3507691,21.171875 C19.9879761,21.1721802 20.5296631,21.6925048 20.5296631,22.3510742 L20.5296631,22.3510742 Z" id="Shape" fill="#FFFFFF" fill-rule="nonzero" transform="translate(23.827545, 22.350922) rotate(-330.000000) translate(-23.827545, -22.350922) "></path>
                    <path d="M39.4451905,19.2175293 C39.7677612,19.1949463 40.0112915,18.9151001 39.9890137,18.5922241 C39.263916,8.168335 30.5813598,0 20.0390625,0 C8.98498531,0 0.0390625,8.94500734 0.0390625,20 C0.0390625,31.0540772 8.98406984,40 20.0390625,40 C30.5734253,40 39.2630005,31.8383789 39.9890137,21.4080811 C40.0112915,21.0852051 39.7680664,20.8053589 39.4451905,20.7827759 C39.1238403,20.7608032 38.8421631,21.0040283 38.8198852,21.3269043 C38.1369019,31.1404419 29.887085,38.8278198 20.0390625,38.8278198 C9.65728758,38.8278198 1.2109375,30.3817749 1.2109375,20 C1.2109375,9.61822508 9.65728758,1.171875 20.0390625,1.171875 C29.8876953,1.171875 38.137207,8.85955812 38.8198852,18.6737061 C38.8421631,18.996582 39.12323,19.2398071 39.4451905,19.2175293 Z" id="Path" fill="#FFFFFF" fill-rule="nonzero"></path>
                    <path d="" id="Path-5" stroke="#979797"></path>
                </g>
                <text id="100%" font-family="Helvetica" font-size="7" font-weight="normal" fill="#FFFFFF">
                    <tspan x="27" y="45">100%</tspan>
                </text>
            </g>
            <line x1="42.5" y1="160.5" x2="86.5" y2="160.5" id="Line-2" stroke="#EA2C13" stroke-linecap="square"></line>
            <line x1="35.5" y1="62.5" x2="35.5" y2="154.5" id="Line-Copy" stroke="#EA2C13" stroke-linecap="square"></line>
        </g>
    </g>
</svg>