<?xml version="1.0" encoding="UTF-8"?>
<svg width="50px" height="48px" viewBox="0 0 50 48" version="1.1" xmlns="http://www.w3.org/2000/svg" xmlns:xlink="http://www.w3.org/1999/xlink">
    <!-- Generator: Sketch 61.2 (89653) - https://sketch.com -->
    <title>Group 8</title>
    <desc>Created with Sketch.</desc>
    <g id="Page-1" stroke="none" stroke-width="1" fill="none" fill-rule="evenodd">
        <g id="Group-8">
            <g id="logo">
                <rect id="Rectangle" stroke="#FFFFFF" x="0.5" y="0.5" width="49" height="47" rx="4"></rect>
                <g id="Group" transform="translate(6.470588, 5.333333)">
                    <path d="M27.8728865,7.56965076 C27.8728865,7.56965076 23.0889794,7.55530659 22.992099,7.56965076 C22.8948558,7.58362395 22.5876446,7.63716725 22.5876446,7.99812083 L22.5876446,28.8618309 C22.5876446,29.0523857 22.7377426,29.2065855 22.9244883,29.2065855 L25.1762012,29.2065855 C25.3622212,29.2065855 25.512924,29.0521384 25.512924,28.8613363 C25.512924,28.8592341 25.5124402,21.0733209 25.5124402,21.0733209 L27.8728865,21.0733209 C29.1204783,21.0733209 30.1307677,20.0367077 30.1307677,18.7578513 L30.1307677,9.88499666 C30.1307677,8.6060166 29.1204783,7.56965076 27.8728865,7.56965076 L27.8728865,7.56965076 Z M27.3869122,17.9988472 C27.3869122,18.3617793 27.0746212,18.6559583 26.7195141,18.6559583 L25.6933803,18.6559583 L25.6933803,9.88845905 L26.7452763,9.88845905 C27.0998996,9.88845905 27.3869122,10.1828854 27.3869122,10.5456938 L27.3869122,17.9988472 L27.3869122,17.9988472 Z" id="Fill-1" fill="#FFFFFF"></path>
                    <path d="M10.1339394,14.1546662 L10.1339394,11.1752844 C10.1339394,10.6653247 10.5373052,10.2526827 11.036221,10.2526827 C11.5345321,10.2526827 11.9389865,10.6921582 11.9389865,11.2016233 L11.9389865,14.5211843 C11.9472111,14.7043197 12.0953739,14.8424441 12.2772817,14.8424441 L14.5407266,14.8424441 C14.7197315,14.8424441 14.8680154,14.7020939 14.8786589,14.5215553 L14.8786589,10.6481364 C14.8786589,8.94451963 13.5277763,7.56327557 11.8612161,7.56327557 L10.2629923,7.56327557 C8.59655301,7.56327557 7.24567044,8.94451963 7.24567044,10.6481364 L7.24567044,15.314194 C7.24567044,16.7911483 7.81304354,17.1074618 9.10212102,18.3729633 L10.1339394,19.4275067 C11.3712506,20.7454386 11.9389865,21.2199089 11.9389865,22.6961212 L11.9389865,25.7020891 C11.9389865,26.2115543 11.5867822,26.7037075 11.0878664,26.7037075 C10.5895553,26.7037075 10.1339394,26.2641083 10.1339394,25.7548905 L10.1339394,22.4835555 C10.1339394,22.4835555 10.1040649,22.2022368 9.80108694,22.2006293 L7.57791813,22.2006293 C7.41076622,22.2006293 7.27022315,22.3167428 7.24663804,22.4835555 L7.24567044,26.3086247 C7.24567044,28.0114995 8.59655301,29.3929909 10.2629923,29.3929909 L11.8612161,29.3929909 C13.5277763,29.3929909 14.8786589,28.0114995 14.8786589,26.3086247 L14.8786589,21.6421961 C14.8786589,20.1652419 14.2598824,19.5324911 12.9702001,18.2669896 L11.9389865,17.2121989 C10.4943682,15.7363576 10.1339394,15.5779535 10.1339394,14.1546662" id="Fill-2" fill="#FFFFFF"></path>
                    <path d="M20.6663469,27.4042906 C21.2269469,26.5396838 21.4199819,25.5014631 21.4682407,24.3338976 L21.4659427,24.3338976 C21.4629189,24.246596 21.3948245,24.1764827 21.3093133,24.1764827 L20.2502814,24.1764827 C20.162956,24.1764827 20.0943778,24.2653918 20.0943778,24.3555375 C20.0943778,24.3629569 20.0936521,24.3546719 20.0943778,24.3617203 C20.065229,24.8280293 20.0155188,25.2932254 19.8257494,25.7032706 L18.9373769,23.9015942 C19.5749006,23.1663321 20.1449346,22.4742262 20.1449346,21.2060043 C20.1449346,19.6491678 19.304458,18.8995616 18.3095291,18.8995616 C17.2757756,18.8995616 16.4259859,19.6924476 16.4259859,21.3070317 C16.4259859,22.0852026 16.8218529,23.03674 17.1018505,23.584415 C16.3096327,24.4491455 15.7689894,25.1413751 15.7689894,26.6403402 C15.7689894,27.9376215 16.3000777,29.5089257 17.8845134,29.5089257 C18.5896477,29.5089257 19.0919501,29.1917465 19.5941315,28.6726362 L19.9066645,29.3134246 C19.9333943,29.3870003 20.0005211,29.4328769 20.0808314,29.4328769 L21.3304795,29.4328769 C21.431714,29.4328769 21.5590736,29.4342371 21.612896,29.3068708 L20.6663469,27.4042906 L20.6663469,27.4042906 Z M18.2707044,20.2547141 C18.5704168,20.2547141 18.8309415,20.5573018 18.8309415,21.0618207 C18.8309415,21.696179 18.541268,22.0852026 18.2322426,22.4742262 C18.0002618,22.0419228 17.7393742,21.5518717 17.7393742,21.0474765 C17.7393742,20.5427103 18.0100587,20.2547141 18.2707044,20.2547141 L18.2707044,20.2547141 Z M18.14528,27.7210988 C17.6623295,27.7210988 17.2757756,27.1157998 17.2757756,26.4531241 C17.2757756,25.948358 17.4498216,25.5161782 17.8458096,25.0979716 L18.8796841,27.2024831 C18.6955993,27.5196622 18.4252776,27.7210988 18.14528,27.7210988 L18.14528,27.7210988 Z" id="Fill-3" fill="#FFFFFF"></path>
                    <path d="M35.6732619,17.6969283 C35.6732619,18.4675561 35.5085289,19.5072607 35.3498435,20.2477163 L37.0357556,20.2477163 C37.2076245,19.5192554 37.3410316,18.4654539 37.3410316,17.6969283 C37.3410316,7.92620315 29.5954393,0.00575154036 20.0404458,0.00575154036 C20.0370592,0.00575154036 20.0306489,1.71097585 20.0306489,1.71097585 C28.6736848,1.71060488 35.6732619,8.86821902 35.6732619,17.6969283 Z" id="Stroke-5" fill="#EA2C13"></path>
                    <path d="M1.66861902,19.4998446 C1.66861902,18.7285985 1.72510233,17.9723148 1.82766733,17.2303753 L0.286652481,17.2201118 L0.141755237,17.2201118 C0.0491080843,17.9632879 0.000849319371,18.7304534 0.000849319371,19.4998446 C0.000849319371,29.2701988 7.74680441,37.1910214 17.3015561,37.1910214 C17.3049426,37.1910214 17.311353,35.4859207 17.311353,35.4859207 C8.66807511,35.4859207 1.66861902,28.3286775 1.66861902,19.4998446 Z" id="Fill-6" fill="#EA2C13"></path>
                </g>
            </g>
        </g>
    </g>
</svg>